 <svg  version="1.0" xmlns="http://www.w3.org/2000/svg"  width="211.000000pt" height="211.000000pt" viewBox="0 0 211.000000 211.000000"  preserveAspectRatio="xMidYMid meet">  <g transform="translate(0.000000,211.000000) scale(0.100000,-0.100000)" fill="#0a2473" stroke="none"> <path d="M919 2099 c-213 -21 -446 -134 -610 -298 -164 -165 -278 -400 -297 -612 -9 -106 2 -105 19 1 42 274 180 510 399 685 54 42 183 116 243 139 81 30 226 66 269 66 19 0 43 7 54 15 10 8 17 14 14 13 -3 0 -44 -4 -91 -9z"/> <path d="M1109 2097 c4 -4 35 -12 67 -17 91 -14 114 -19 187 -41 83 -24 242 -104 291 -146 12 -10 39 -31 61 -48 179 -133 329 -405 360 -650 9 -73 14 -95 23 -95 15 0 -8 180 -34 262 -105 335 -367 597 -702 702 -81 25 -270 50 -253 33z"/> <path d="M1495 1579 c-163 -15 -263 -62 -341 -164 -47 -62 -64 -115 -64 -204 0 -75 2 -82 38 -136 41 -60 117 -114 162 -115 46 -1 162 -29 206 -51 61 -29 59 -52 -8 -83 -29 -14 -64 -23 -78 -22 -14 2 -31 4 -38 5 -23 2 -62 53 -62 81 0 15 -6 32 -13 38 -19 16 -263 17 -282 2 -21 -17 -21 -22 25 258 22 133 40 252 40 263 0 13 -8 23 -21 26 -20 6 -20 7 7 30 18 15 24 27 18 33 -12 12 -512 24 -611 15 -78 -7 -89 -18 -53 -50 16 -14 18 -21 8 -28 -10 -7 -10 -8 1 -5 15 4 87 -59 84 -73 -2 -5 3 -8 10 -6 6 1 11 -3 10 -9 -1 -7 7 -20 17 -29 11 -10 20 -15 20 -10 0 4 7 2 15 -5 8 -7 12 -17 8 -23 -3 -5 -2 -7 4 -4 11 7 76 -56 68 -66 -3 -4 -2 -5 1 -2 4 2 15 0 26 -6 15 -8 26 -6 46 7 26 17 27 17 11 -2 -9 -10 -17 -26 -17 -34 -1 -49 -40 -285 -57 -346 -16 -56 -43 -78 -91 -72 -29 3 -29 4 -30 72 -2 93 -6 96 -159 96 -150 0 -156 -4 -163 -114 -8 -128 41 -223 143 -278 59 -32 62 -33 186 -33 l127 1 83 42 c89 44 120 68 156 120 29 39 63 124 64 160 1 15 5 -1 10 -34 14 -112 65 -184 162 -232 160 -79 395 -69 530 21 114 77 174 189 165 306 -13 156 -131 253 -348 286 -59 9 -92 30 -88 57 6 42 101 73 147 48 10 -5 26 -28 35 -50 l16 -40 133 0 c90 0 137 4 145 12 19 19 14 101 -8 162 -34 88 -134 162 -250 182 -61 10 -65 10 -145 3z m147 -30 c109 -23 194 -83 225 -157 8 -20 16 -62 18 -94 l4 -58 -129 0 c-111 0 -130 2 -130 15 0 37 -30 74 -68 84 -90 25 -205 -51 -166 -108 22 -31 43 -39 147 -60 197 -40 290 -127 291 -271 0 -124 -72 -228 -202 -292 -66 -33 -67 -33 -222 -33 -149 0 -157 1 -215 28 -64 30 -118 75 -141 118 -22 43 -35 116 -28 159 l7 40 122 0 123 0 7 -39 c13 -79 94 -118 190 -91 49 14 95 53 95 80 0 42 -75 80 -210 105 -107 20 -164 47 -200 97 -40 55 -53 100 -48 167 10 145 133 269 302 306 77 17 160 18 228 4z m-719 -135 c-87 -70 -170 -138 -184 -151 l-26 -24 -154 150 -154 150 338 1 338 0 -158 -126z m142 46 c-3 -6 -31 -159 -61 -341 -63 -383 -70 -404 -166 -475 -84 -62 -171 -89 -288 -89 -75 0 -105 5 -140 21 -106 49 -152 120 -153 237 0 122 -7 117 143 117 l129 0 -6 -64 c-5 -56 -3 -66 16 -85 26 -26 72 -27 112 -4 37 22 50 63 86 285 l28 166 150 121 c83 66 151 120 153 121 2 0 0 -5 -3 -10z m-504 -97 c13 -16 12 -17 -3 -4 -10 7 -18 15 -18 17 0 8 8 3 21 -13z"/> <path d="M12 921 c23 -260 180 -536 400 -701 153 -116 344 -194 509 -208 107 -9 103 3 -7 23 -145 27 -173 34 -216 53 -24 11 -54 23 -68 27 -14 4 -41 18 -60 31 -19 13 -39 24 -43 24 -15 0 -169 125 -218 177 -150 158 -244 352 -278 573 -17 106 -28 107 -19 1z"/> <path d="M2096 1002 c-2 -4 -12 -50 -21 -102 -40 -232 -130 -406 -294 -571 -91 -91 -193 -163 -298 -211 -91 -41 -134 -54 -258 -78 -60 -12 -113 -25 -117 -29 -4 -4 32 -3 81 1 173 15 377 102 531 225 205 164 357 439 378 684 8 89 8 96 -2 81z"/> </g> </svg> 